PathFileType	4	(X/Y/Z)	Walk6.trc
DataRate	CameraRate	NumFrames	NumMarkers	Units	OrigDataRate	OrigDataStartFrame	OrigNumFrames
200.000000	200.000000	9	59	mm	200.000000	799	1038
Frame#	Times		LFHD		RFHD		RCAR		RWRU		LACR1		RACR1		RUA1		RTH2		LLFC		RFA1		LMT5		RASI		LTH3		LUA1		LElbow		LMT1		LTB4		RTH4		LToe		RBHD		RLFC		LTB3		LTH4		LTH2		STRN		CLAV		LASI		RTH3		LTH1		LWRU		C7		LFA1		RBack		RMT1		RTH1		LBHD		RMT5		RCAL		LPSI		LCAR		RToe		RTB2		RLMAL		RPSI		RTB3		LWRR		RTB4		RTB1		LTB1		LLMAL		RMMAL		RElbow		RWRR		RElbowM		T10		LTB2		LMMAL		LCAL		LElbowM
			X1	Y1	Z1	X2	Y2	Z2	X3	Y3	Z3	X4	Y4	Z4	X5	Y5	Z5	X6	Y6	Z6	X7	Y7	Z7	X8	Y8	Z8	X9	Y9	Z9	X10	Y10	Z10	X11	Y11	Z11	X12	Y12	Z12	X13	Y13	Z13	X14	Y14	Z14	X15	Y15	Z15	X16	Y16	Z16	X17	Y17	Z17	X18	Y18	Z18	X19	Y19	Z19	X20	Y20	Z20	X21	Y21	Z21	X22	Y22	Z22	X23	Y23	Z23	X24	Y24	Z24	X25	Y25	Z25	X26	Y26	Z26	X27	Y27	Z27	X28	Y28	Z28	X29	Y29	Z29	X30	Y30	Z30	X31	Y31	Z31	X32	Y32	Z32	X33	Y33	Z33	X34	Y34	Z34	X35	Y35	Z35	X36	Y36	Z36	X37	Y37	Z37	X38	Y38	Z38	X39	Y39	Z39	X40	Y40	Z40	X41	Y41	Z41	X42	Y42	Z42	X43	Y43	Z43	X44	Y44	Z44	X45	Y45	Z45	X46	Y46	Z46	X47	Y47	Z47	X48	Y48	Z48	X49	Y49	Z49	X50	Y50	Z50	X51	Y51	Z51	X52	Y52	Z52	X53	Y53	Z53	X54	Y54	Z54	X55	Y55	Z55	X56	Y56	Z56	X57	Y57	Z57	X58	Y58	Z58	X59	Y59	Z59

799	3.995	-92.943	1562.1	-96.783	-94.499	1559.3	1.0787	-313.68	784.52	275.72	-346.08	844.93	292.07	-206.06	1339.6	-234.81	-251.04	1374.9	119.06	-310.03	1240	207.41	-118.47	662.03	173.52	-296.98	486.57	-179.69	-317.31	948.33	263.28	-265.89	24.708	-152.96	-168.77	964.34	145.4	-253.61	554.8	-190.9	-193.63	1196.1	-312.29	-204.91	1048.5	-355.61	-250.59	35.295	-61.794	-316.28	248.29	-81.924	-174.49	645.61	188.18	-205.28	29.197	-62.613	-265.35	1565.2	6.2064	-131.08	474.5	170.22	-329.61	163.68	-84.831	-227.23	634.04	-217.87	-179.61	628.58	-181.94	-99.997	1211.2	-27.255	-159.06	1328.7	-51.103	-148.07	950.06	-214.07	-151.73	562.12	175.91	-197.08	708.71	-245.16	-84.609	834.86	-387.66	-315.46	1410.3	-61.053	-108.22	950.5	-360.18	-384.51	1314	30.594	37.535	67.359	112.91	-188.8	728.36	203.22	-244.59	1556.4	-127.58	11.146	57.165	193.3	-146.93	32.365	116.42	-390.2	973.23	-140.54	-34.715	802.89	-375.64	73.558	78.338	129.18	-88.508	293.67	167.77	-108.07	78.113	168.43	-411.35	969.67	-9.0075	-65.321	202.08	116.68	-52.933	846.14	-320.67	-65.893	286.1	110.59	-55.187	372	105.33	-297.45	331.62	-75.394	-381.03	71.272	-144.94	-77.495	90.28	88.629	-371.38	1081.9	244.57	-303.9	841.92	229.89	-396.68	1066.7	155.42	-378.22	1079.7	-60.469	-313.24	251.74	-143.15	-373.44	75.792	-60.379	-439.52	33.602	-105.48	-235.98	1006.7	-260.4
800	4	-88.595	1561.5	-96.17	-90.234	1558.6	1.6903	-309.78	783.9	276.28	-342.3	844.25	292.48	-201.68	1339.1	-234.2	-246.8	1374.3	119.57	-305.87	1239.4	207.91	-114.29	660.88	173.08	-294.63	486.5	-179.38	-313.38	947.62	263.68	-265.9	24.674	-152.97	-163.94	963.36	145.48	-250.93	554.52	-190.67	-187.95	1195.7	-311.52	-198.24	1048.3	-355.21	-250.54	35.31	-61.838	-315.16	248.24	-81.853	-170.24	644.67	188.26	-205.2	29.136	-62.638	-261.08	1564.6	6.6797	-126.82	473.53	170.02	-328.96	163.68	-84.796	-224.43	633.65	-217.79	-176.61	628.03	-182.14	-95.739	1210.5	-27.098	-154.86	1328	-50.654	-143.82	949.83	-214.33	-147.84	561.15	176.02	-194.13	708.17	-245.25	-75.277	836.02	-386.27	-311.27	1409.6	-60.558	-100.43	951.36	-359.04	-380.3	1313.3	31.133	53.26	70.505	112.9	-184.2	727.43	203.43	-240.22	1555.7	-127.08	28.052	59.646	193.56	-130.31	30.861	118.55	-386.27	972.43	-139.41	-25.109	804.6	-373.81	89.149	82.385	128.7	-78.652	294.09	167.95	-92.041	77.747	169.95	-406.89	968.76	-7.8543	-53.345	202.8	117.22	-44.283	847.65	-318.99	-56.469	286.79	110.66	-48.27	372.94	104.76	-295.85	331.43	-75.293	-380.85	71.555	-144.93	-62.566	90.479	89.825	-367.29	1081.3	244.98	-300.11	841.19	230.31	-392.55	1066.1	155.82	-374.11	1079	-59.704	-312.19	251.72	-143.07	-373.2	76.039	-60.356	-439.46	34.033	-105.48	-229.58	1006.2	-260.28
801	4.005	-84.253	1560.7	-95.521	-85.971	1557.9	2.3368	-305.8	783.26	276.84	-338.45	843.54	292.91	-197.34	1338.6	-233.56	-242.55	1373.6	120.1	-301.69	1238.8	208.46	-110.17	659.66	172.65	-292.26	486.43	-179.07	-309.38	946.89	264.09	-265.91	24.642	-152.98	-159.1	962.36	145.55	-248.23	554.24	-190.43	-182.25	1195.5	-310.66	-191.6	1048.1	-354.75	-250.48	35.325	-61.884	-314.01	248.2	-81.782	-166.04	643.67	188.36	-205.13	29.079	-62.665	-256.82	1564	7.1964	-122.56	472.54	169.83	-328.28	163.69	-84.765	-221.64	633.26	-217.72	-173.6	627.48	-182.37	-91.458	1209.9	-26.973	-150.65	1327.4	-50.185	-139.57	949.6	-214.6	-144.02	560.12	176.19	-191.21	707.63	-245.35	-66.055	837.24	-384.84	-307.09	1409	-60.015	-92.733	952.27	-357.85	-376.09	1312.7	31.724	68.496	73.75	112.68	-179.64	726.44	203.66	-235.85	1555.1	-126.54	44.514	62.234	193.63	-114.09	29.67	120.54	-382.32	971.62	-138.25	-15.63	806.35	-371.94	104.25	86.486	128	-68.952	294.62	168.05	-76.389	77.643	171.33	-402.38	967.84	-6.6639	-41.674	203.65	117.62	-35.742	849.19	-317.29	-47.245	287.56	110.62	-41.478	373.88	104.1	-294.21	331.26	-75.192	-380.67	71.862	-144.92	-48.032	90.91	90.884	-363.15	1080.6	245.43	-296.25	840.44	230.75	-388.39	1065.5	156.25	-369.98	1078.3	-58.898	-311.12	251.71	-142.99	-372.93	76.306	-60.329	-439.39	34.5	-105.47	-223.24	1005.7	-260.13
802	4.01	-79.918	1560	-94.837	-81.71	1557.2	3.0185	-301.74	782.6	277.42	-334.5	842.81	293.37	-193.04	1338.1	-232.89	-238.31	1372.9	120.67	-297.5	1238.1	209.05	-106.11	658.38	172.25	-289.87	486.36	-178.75	-305.32	946.15	264.53	-265.94	24.613	-152.98	-154.25	961.35	145.64	-245.53	553.97	-190.19	-176.55	1195.2	-309.72	-184.98	1048	-354.24	-250.42	35.342	-61.932	-312.84	248.16	-81.711	-161.9	642.6	188.48	-205.05	29.024	-62.693	-252.56	1563.4	7.7579	-118.27	471.54	169.66	-327.58	163.71	-84.74	-218.83	632.87	-217.65	-170.59	626.94	-182.6	-87.157	1209.4	-26.871	-146.44	1326.8	-49.694	-135.37	949.36	-214.85	-140.24	559.01	176.4	-188.28	707.1	-245.45	-56.945	838.5	-383.38	-302.94	1408.3	-59.425	-85.119	953.22	-356.6	-371.88	1312	32.364	83.204	77.044	112.29	-175.13	725.39	203.9	-231.5	1554.5	-125.96	60.471	64.886	193.51	-98.345	28.767	122.38	-378.35	970.8	-137.07	-6.2808	808.15	-370.05	118.82	90.585	127.13	-59.42	295.23	168.05	-61.174	77.774	172.57	-397.83	966.9	-5.443	-30.333	204.6	117.9	-27.309	850.77	-315.56	-38.23	288.38	110.47	-34.805	374.8	103.35	-292.54	331.09	-75.09	-380.48	72.194	-144.9	-33.937	91.54	91.805	-358.97	1079.9	245.92	-292.3	839.68	231.22	-384.19	1064.8	156.72	-365.83	1077.6	-58.056	-310.05	251.71	-142.91	-372.65	76.593	-60.296	-439.31	35.005	-105.45	-216.96	1005.3	-259.93
803	4.015	-75.59	1559.3	-94.118	-77.451	1556.4	3.7355	-297.6	781.91	278.01	-330.47	842.06	293.86	-188.77	1337.7	-232.19	-234.06	1372.2	121.27	-293.29	1237.5	209.68	-102.09	657.05	171.88	-287.48	486.31	-178.43	-301.18	945.39	264.99	-265.96	24.587	-152.99	-149.39	960.33	145.74	-242.82	553.7	-189.94	-170.86	1195	-308.71	-178.4	1048	-353.66	-250.36	35.361	-61.984	-311.63	248.13	-81.639	-157.78	641.47	188.64	-204.98	28.973	-62.723	-248.3	1562.8	8.3657	-113.93	470.55	169.48	-326.85	163.76	-84.718	-216.02	632.49	-217.57	-167.57	626.4	-182.83	-82.837	1208.8	-26.786	-142.24	1326.2	-49.18	-131.24	949.09	-215.06	-136.47	557.85	176.65	-185.33	706.57	-245.56	-47.95	839.81	-381.88	-298.81	1407.7	-58.788	-77.596	954.2	-355.31	-367.67	1311.3	33.052	97.349	80.334	111.76	-170.65	724.27	204.15	-227.15	1553.9	-125.33	75.865	67.557	193.24	-83.119	28.121	124.06	-374.36	969.97	-135.88	2.9375	809.98	-368.14	132.83	94.625	126.12	-50.072	295.91	167.95	-46.453	78.103	173.65	-393.23	965.97	-4.1988	-19.346	205.63	118.05	-18.985	852.39	-313.82	-29.432	289.23	110.22	-28.243	375.69	102.52	-290.83	330.93	-74.987	-380.29	72.553	-144.87	-20.322	92.333	92.588	-354.73	1079.2	246.45	-288.28	838.9	231.7	-379.95	1064.2	157.23	-361.66	1076.8	-57.18	-308.95	251.72	-142.84	-372.35	76.903	-60.258	-439.22	35.55	-105.43	-210.74	1004.9	-259.68
804	4.02	-71.27	1558.5	-93.364	-73.195	1555.7	4.4882	-293.38	781.2	278.61	-326.36	841.28	294.37	-184.55	1337.3	-231.46	-229.8	1371.5	121.91	-289.06	1236.8	210.36	-98.094	655.7	171.54	-285.07	486.28	-178.1	-296.98	944.6	265.47	-265.99	24.563	-152.98	-144.51	959.32	145.86	-240.11	553.45	-189.7	-165.18	1194.7	-307.63	-171.86	1047.9	-353.03	-250.29	35.383	-62.039	-310.4	248.12	-81.564	-153.68	640.29	188.83	-204.92	28.925	-62.756	-244.05	1562.1	9.0213	-109.5	469.56	169.3	-326.09	163.82	-84.7	-213.19	632.11	-217.5	-164.55	625.86	-183.06	-78.5	1208.3	-26.709	-138.03	1325.6	-48.643	-127.21	948.79	-215.22	-132.68	556.64	176.92	-182.36	706.05	-245.65	-39.073	841.16	-380.36	-294.69	1407	-58.103	-70.168	955.2	-353.98	-363.45	1310.6	33.788	110.9	83.564	111.11	-166.22	723.11	204.43	-222.82	1553.3	-124.65	90.639	70.198	192.83	-68.472	27.698	125.54	-370.34	969.13	-134.68	12.024	811.86	-366.2	146.24	98.55	125.01	-40.923	296.63	167.77	-32.282	78.593	174.58	-388.6	965.03	-2.9385	-8.7339	206.7	118.08	-10.77	854.04	-312.06	-20.86	290.09	109.86	-21.788	376.53	101.61	-289.1	330.79	-74.886	-380.1	72.94	-144.83	-7.2238	93.247	93.234	-350.45	1078.5	247.02	-284.18	838.11	232.21	-375.67	1063.5	157.79	-357.47	1076	-56.274	-307.85	251.76	-142.77	-372.04	77.239	-60.216	-439.12	36.136	-105.39	-204.58	1004.6	-259.38
805	4.025	-66.96	1557.8	-92.574	-68.941	1554.9	5.2768	-289.09	780.45	279.22	-322.16	840.47	294.91	-180.37	1336.9	-230.69	-225.55	1370.8	122.58	-284.82	1236.2	211.07	-94.099	654.32	171.23	-282.66	486.26	-177.78	-292.7	943.8	265.97	-266.02	24.542	-152.97	-139.62	958.33	145.99	-237.4	553.21	-189.45	-159.51	1194.5	-306.48	-165.36	1047.9	-352.34	-250.21	35.408	-62.099	-309.15	248.12	-81.488	-149.57	639.06	189.05	-204.85	28.881	-62.793	-239.79	1561.5	9.7259	-104.97	468.59	169.11	-325.31	163.9	-84.684	-210.34	631.74	-217.43	-161.53	625.32	-183.27	-74.147	1207.7	-26.631	-133.82	1325	-48.079	-123.31	948.45	-215.3	-128.84	555.39	177.21	-179.34	705.55	-245.73	-30.314	842.55	-378.82	-290.59	1406.3	-57.37	-62.837	956.24	-352.6	-359.24	1309.8	34.571	123.83	86.681	110.38	-161.81	721.89	204.72	-218.49	1552.7	-123.93	104.75	72.762	192.32	-54.453	27.457	126.83	-366.29	968.3	-133.47	20.978	813.76	-364.24	159.04	102.3	123.84	-31.994	297.37	167.51	-18.708	79.198	175.35	-383.92	964.09	-1.669	1.4854	207.77	117.99	-2.6642	855.72	-310.29	-12.523	290.93	109.41	-15.438	377.3	100.64	-287.34	330.66	-74.785	-379.89	73.356	-144.79	5.3227	94.24	93.74	-346.12	1077.7	247.63	-279.99	837.3	232.74	-371.36	1062.8	158.38	-353.27	1075.3	-55.341	-306.72	251.81	-142.7	-371.71	77.603	-60.169	-439.01	36.764	-105.35	-198.48	1004.2	-259.04
806	4.03	-62.66	1557	-91.749	-64.69	1554.1	6.1017	-284.72	779.68	279.84	-317.87	839.64	295.49	-176.23	1336.6	-229.9	-221.3	1370.1	123.28	-280.56	1235.5	211.82	-90.088	652.95	170.97	-280.23	486.26	-177.46	-288.36	942.97	266.51	-266.06	24.523	-152.96	-134.7	957.36	146.14	-234.68	552.99	-189.22	-153.87	1194.3	-305.28	-158.91	1048	-351.59	-250.13	35.437	-62.163	-307.87	248.13	-81.41	-145.44	637.8	189.3	-204.78	28.841	-62.834	-235.53	1560.9	10.481	-100.32	467.66	168.9	-324.5	164	-84.67	-207.45	631.38	-217.35	-158.48	624.79	-183.47	-69.781	1207.2	-26.543	-129.61	1324.4	-47.487	-119.53	948.08	-215.29	-124.93	554.11	177.49	-176.28	705.07	-245.79	-21.676	843.97	-377.24	-286.51	1405.6	-56.589	-55.604	957.29	-351.19	-355.02	1309	35.4	136.12	89.636	109.58	-157.43	720.65	205.04	-214.18	1552	-123.17	118.14	75.202	191.72	-41.105	27.355	127.9	-362.22	967.46	-132.26	29.8	815.69	-362.27	171.21	105.83	122.64	-23.303	298.1	167.16	-5.7755	79.873	175.94	-379.22	963.15	-0.39716	11.297	208.82	117.8	5.332	857.43	-308.51	-4.4301	291.72	108.89	-9.1885	378	99.621	-285.55	330.54	-74.686	-379.68	73.8	-144.74	17.288	95.267	94.108	-341.74	1076.9	248.28	-275.73	836.48	233.29	-367.02	1062.1	159.02	-349.05	1074.5	-54.383	-305.57	251.88	-142.63	-371.36	77.996	-60.121	-438.89	37.434	-105.29	-192.44	1004	-258.65
807	4.035	-58.372	1556.3	-90.887	-60.441	1553.4	6.9632	-280.28	778.88	280.47	-313.5	838.78	296.09	-172.12	1336.2	-229.09	-217.04	1369.4	124.03	-276.29	1234.8	212.61	-86.04	651.61	170.75	-277.79	486.28	-177.14	-283.95	942.13	267.08	-266.1	24.506	-152.94	-129.76	956.41	146.32	-231.95	552.79	-188.99	-148.26	1194.2	-304.03	-152.51	1048	-350.79	-250.05	35.47	-62.232	-306.57	248.16	-81.331	-141.26	636.51	189.57	-204.72	28.805	-62.88	-231.28	1560.3	11.286	-95.536	466.75	168.68	-323.67	164.13	-84.658	-204.53	631.04	-217.28	-155.42	624.25	-183.66	-65.405	1206.7	-26.437	-125.4	1323.8	-46.864	-115.88	947.67	-215.2	-120.92	552.81	177.75	-173.16	704.6	-245.82	-13.159	845.42	-375.64	-282.43	1404.8	-55.758	-48.472	958.37	-349.75	-350.8	1308.3	36.277	147.75	92.379	108.73	-153.07	719.38	205.37	-209.89	1551.4	-122.35	130.79	77.472	191.05	-28.466	27.349	128.74	-358.11	966.63	-131.06	38.488	817.64	-360.28	182.72	109.09	121.44	-14.871	298.78	166.74	6.4776	80.569	176.37	-374.48	962.22	0.8707	20.688	209.81	117.5	13.218	859.16	-306.71	3.4122	292.45	108.29	-3.0382	378.6	98.579	-283.72	330.44	-74.59	-379.46	74.274	-144.69	28.649	96.284	94.334	-337.32	1076.1	248.98	-271.39	835.63	233.87	-362.64	1061.3	159.71	-344.81	1073.6	-53.403	-304.4	251.97	-142.55	-371	78.422	-60.071	-438.76	38.148	-105.23	-186.47	1003.7	-258.22
